<svg xmlns="http://www.w3.org/2000/svg" width="82" height="84"><g fill="none" fill-rule="evenodd"><path fill="#8B9DFF" d="M0 19h79v51.004A3.997 3.997 0 0 1 75.003 74H3.998A3.997 3.997 0 0 1 0 70.004V19z"/><path fill="#2611C9" d="M0 3.493V19h79V3.493C79 1.563 77.491 0 75.63 0H3.37C1.51 0 0 1.564 0 3.493"/><path fill="#E8F2FF" d="M26.495 64C25.667 64 25 63.373 25 62.606V26.394c0-.767.667-1.394 1.495-1.394.83 0 1.505.627 1.505 1.394v36.212c0 .767-.675 1.394-1.505 1.394"/><path fill="#E8F2FF" d="M16.377 36a1.376 1.376 0 0 1-.975-2.35l8.255-8.246a1.369 1.369 0 0 1 1.94 0 1.379 1.379 0 0 1 0 1.946l-8.254 8.246c-.268.27-.617.404-.966.404m35.127 29C46.262 65 42 60.576 42 55.134c0-.777.609-1.41 1.358-1.41.749 0 1.36.633 1.36 1.41 0 3.887 3.042 7.044 6.786 7.044 3.738 0 6.786-3.157 6.786-7.044V35.41c0-.776.602-1.41 1.351-1.41.75 0 1.359.634 1.359 1.41v19.724C61 60.576 56.74 65 51.504 65"/><path fill="#E8F2FF" d="M51.496 25C56.738 25 61 29.424 61 34.866c0 .777-.609 1.41-1.358 1.41-.749 0-1.359-.633-1.359-1.41 0-3.887-3.043-7.044-6.787-7.044-3.738 0-6.786 3.157-6.786 7.044V54.59c0 .776-.602 1.41-1.351 1.41-.75 0-1.359-.634-1.359-1.41V34.866C42 29.424 46.26 25 51.496 25"/><path fill="#2611C9" d="M82 68.5C82 77.06 75.064 84 66.504 84 57.936 84 51 77.06 51 68.5 51 59.942 57.936 53 66.504 53 75.064 53 82 59.942 82 68.5"/><path fill="#FFF" d="M74.622 67.246h-6.876v-6.878c0-.757-.61-1.368-1.369-1.368-.766 0-1.377.61-1.377 1.368v8.255c0 .76.61 1.377 1.377 1.377h8.245C75.39 70 76 69.383 76 68.623c0-.758-.61-1.377-1.378-1.377"/></g></svg>