<svg xmlns="http://www.w3.org/2000/svg" width="581" height="849"><g fill="none" fill-rule="evenodd"><path fill="#00B9ED" d="M480.07 104.763c-17.762-31.676-54.383-46.7-87.768-37.181-.062.018-.124.02-.186.032-.315.158-4.429-68.745-89.722-67.6-38.82.521-79.267 38.963-77.21 75.986-6.171 0-5.142 0-16.724 1.28-16.593 1.833-34.653 10.252-45.889 23.21-12.874 14.848-19.827 34.932-18.127 55.17 1.67 19.864 11.373 38.388 26.424 50.334 13.96 11.078 30.204 16.12 47.468 16.825 11.32.463 22.654.638 33.982.806 32.38.48 64.765.626 97.146.728 14.228.045 28.454.075 42.68.09 11.687.012 23.985 1.01 35.5-1.345 37.654-7.704 66.178-44.407 62.456-85.793-1.032-11.477-4.48-22.642-10.03-32.542"/><path fill="#E8CBAE" d="M401.942 464.95L392 453.822l4.192-4.823 8.36 5.98 1.009-3.28L413 462.347 409.266 468z"/><path fill="#00B9ED" d="M489.45 435l-25.744 48.556-53.667-28.758-6.039 12.27L465.498 520 524 458.19z"/><path fill="#94A1A9" d="M460.608 502.45c-4.35 6.632-22.426 30.551-22.153 29.084l-88.125-4.474 31.509-31.322 78.77 6.711z"/><path fill="#BCC7CF" d="M421.716 445.812H331.13l17.724 80.87 89.6 4.83z"/><path fill="#2E4661" d="M498.132 600.058v21.713l-28.98 94.092 7.245 97.711-18.112 3.619-28.979-119.425 1.108-35.136 13.38-71.66z"/><path fill="#2E4661" d="M475.143 625.767l29.119 199.04h13.236l8.36-108.567 18.11-108.568z"/><path fill="#363636" d="M461.283 819.674l-13.826 14.62 3.994 7.41 28.529-13.68-5.254-10.83zm43.224 9.774l-17.043 10.704 2.013 8.173 31.045-6.127-2.378-11.797z"/><path fill="#E8CBAE" d="M463.107 388.759c11.738.862 22.715-8.768 34.268-6.378 7.513 1.555 13.443 8.212 15.735 15.713 1.07 3.497 1.447 7.308.402 10.786-.678 2.256-1.93 4.29-3.404 6.097-1.97 2.417-4.38 4.423-7.054 5.965a46.02 46.02 0 0 0 5.025 6.661l-16.242 6.214-3.589-9.323a24.684 24.684 0 0 1-4.84-.734c-9.612-2.492-17.58-10.902-19.723-20.817-1.005-4.645-.813-9.448-.578-14.184"/><path fill="#4E4E4E" d="M466.07 392.297l36.298-4.308 7.045 27.699 10.25-8.127-5.281-45.324-51.227-1.102-22.18 13 .94 13.026 19.832 13.338z"/><path fill="#00B9ED" d="M480.16 438.105l43.113-17.086s35.804 41.674 53.222 102.579c17.418 60.904-21.289 146.327-21.289 146.327s-120.22-24.519-139.943-28.385l38.909-121.81 25.988-81.625z"/><path fill="#E8CBAE" d="M393.085 535.842l-15.553-.701.01-6.654 10.757-1.875-1.456-3.149 13.234 2.219.925 6.918z"/><path fill="#00B9ED" d="M490.516 454.092l-26.292 54.85-68.376 14.487 2.536 13.635 84.523.768 47.269-59.883z"/><path fill="#FFF" d="M255.791 397.59a5.492 5.492 0 0 1-7.763 0 5.48 5.48 0 0 1 0-7.755 5.494 5.494 0 0 1 7.763 0 5.48 5.48 0 0 1 0 7.756m127.964-.001a5.492 5.492 0 0 1-7.764 0 5.48 5.48 0 0 1 0-7.755 5.494 5.494 0 0 1 7.764 0 5.48 5.48 0 0 1 0 7.756m-33.316-43.496a5.492 5.492 0 0 1-7.764 0 5.48 5.48 0 0 1 0-7.756 5.494 5.494 0 0 1 7.764 0 5.48 5.48 0 0 1 0 7.756m-31.802-34.04a5.492 5.492 0 0 1-7.763 0 5.48 5.48 0 0 1 0-7.756 5.494 5.494 0 0 1 7.763 0 5.48 5.48 0 0 1 0 7.756m-29.607 24.733a5.485 5.485 0 0 1 4.658 6.205 5.487 5.487 0 0 1-6.21 4.653 5.484 5.484 0 1 1 1.552-10.858m26.501-75.645A5.485 5.485 0 1 1 313.98 280a5.484 5.484 0 1 1 1.552-10.858"/><path fill="#2E4661" d="M103.482 437.413l-43.89-17.394s-15.598 38.706-33.33 100.709C8.53 582.73 34.494 661.654 34.494 661.654s100.55-23.873 120.628-27.81L129.938 520.51l-26.456-83.097z"/><path fill="#E8CBAE" d="M161.03 461.83l10.347-11.36-4.363-4.925-8.701 6.107-1.05-3.35-7.744 10.871 3.888 5.773z"/><path fill="#2E4661" d="M71.527 431.676l26.305 49.435 54.837-29.28 6.17 12.491-62.838 53.89-59.777-62.926zM68.28 592.69v22.106l23.582 107.877 2.272 96.069 19.686-.756 12.115-101.365 1.514-83.966-3.854-49.215z"/><path fill="#2E4661" d="M91.682 618.863L81.26 723.429l-19.222 98.06H48.564l-2.89-104.868-24.058-116.18z"/><path fill="#363636" d="M107.878 816.07l18.68 8.42-.89 8.522-32.162-1.854.753-12.229zm-46.089 4.093l17.35 10.897-2.05 8.32-31.605-6.237 2.423-12.01z"/><path fill="#E8CBAE" d="M103.935 377.584c-11.95.878-23.124-8.927-34.886-6.493-7.648 1.582-13.685 8.36-16.018 15.996-1.088 3.56-1.474 7.44-.41 10.98.691 2.297 1.966 4.367 3.466 6.207 2.006 2.46 4.459 4.503 7.181 6.073-1.496 2.408-5.845 6.89-7.75 8.99 5.51 2.108 11.903 4.699 17.414 6.808 1.218-3.165 4.19-9.02 5.409-12.183a25.165 25.165 0 0 0 4.927-.747c9.785-2.537 17.897-11.098 20.08-21.192 1.022-4.728.826-9.619.587-14.44"/><path fill="#4E4E4E" d="M100.918 381.186l-36.952-4.387-7.171 28.199-10.435-8.273 2.753-23.621c2.953-25.366 36.051-23.24 54.773-23.642l22.58 13.234-.956 13.261-20.19 13.577-4.402-8.348z"/><path fill="#FFF" d="M86.575 427.82l-43.89-17.395S27.087 449.13 9.355 511.133c-17.732 62.002 8.233 140.927 8.233 140.927s89.945-44.4 110.023-48.337l-14.58-92.808-26.456-83.096z"/><path fill="#2E4661" d="M7.692 512.457c17.732-62.002 33.33-100.708 33.33-100.708l43.782 17.42.18.198c-.974 2.534-1.989 5.053-2.87 7.62a176.192 176.192 0 0 0-7.624 31.17c-2.774 18.63-3.065 37.785-2.469 56.585.572 18.04 2.434 36.043 5.642 53.806 4.241 23.482 11.003 46.362 19.715 68.508-40.822 8.287-88.864 18.085-88.864 18.085s-18.554-90.681-.822-152.684"/><path fill="#00B9ED" d="M106.639 526.865c1.985 8.349 4.11 17.755 2.414 25.872 0 0-5.475 11.429-5.945 10.958-.02-.363-6.24-5.497-7.982-9.322-2.971-6.526-3.61-14.671-3.672-22.033-.22-26.123 1.327-52.458-3.083-78.209-5.146-1.562-9.558-5.344-6.394-10.711 10.013 3.795 11.074 26.312 13.261 35.508l11.4 47.937"/><path fill="#94A1A9" d="M100.407 492.963c5.807 7.475 29.121 34.01 28.524 32.233l86.744-21.22-38.333-33.354-76.935 22.34z"/><path fill="#BCC7CF" d="M131.47 443.207l90.19-16.093-4.314 77.713-88.415 20.37z"/><path fill="#E8CBAE" d="M175.22 525.993l15.832-.713-.01-6.774-10.95-1.91 1.482-3.206-13.474 2.26-.94 7.043z"/><path fill="#2E4661" d="M76.032 442.77l26.766 55.837 69.608 14.749-2.581 13.88-86.047.783-48.12-60.963z"/><path fill="#FFF" d="M193.984 125.845v12.757c2.492-.068 4.984.277 7.397-.558 2.566-.888 4.079-3.107 4.044-5.865-.035-2.856-1.493-4.934-4.11-5.8-2.385-.789-4.843-.484-7.33-.534zm-.031 33.391c1.879 0 3.681.071 5.473-.022 1.482-.078 2.987-.212 4.422-.569 2.2-.547 3.73-1.938 4.291-4.215 1.085-4.408-1.21-7.932-5.74-8.426-2.738-.299-5.527-.141-8.293-.183-.044 0-.09.077-.153.132v13.283zm-8.799-40.52c5.324.002 10.651-.13 15.97.05 3.891.132 7.434 1.421 10.161 4.422 4.447 4.894 3.645 13.85-2.638 17.282-.08.044-.148.108-.278.205.157.085.27.175.4.211 6.883 1.935 9.983 8.8 7.895 15.49-1.722 5.508-5.838 8.389-11.285 9.566-1.48.32-3.016.39-4.525.574h-15.7v-47.8zm165.596 47.8c.452-7.016 3.114-13.022 8.415-17.7 2.42-2.136 5.118-3.954 7.618-6.004 1.241-1.017 2.506-2.099 3.438-3.385 2.696-3.72.675-8.086-3.88-8.576-3.834-.411-7.397.607-10.851 2.141-.42.187-.84.374-1.334.596l-2.1-6.102c2.394-.795 4.675-1.694 7.032-2.304 3.865-1 7.8-1.272 11.738-.355 7.91 1.841 11.17 9.965 6.768 16.823-1.504 2.344-3.592 4.109-5.738 5.821-2.236 1.785-4.505 3.534-6.67 5.402-1.855 1.601-3.299 3.55-4.153 5.883-.127.343-.212.701-.353 1.18h19.04v6.58h-28.97zm48.774-30.316c-3.439 4.63-6.83 9.195-10.222 13.765h9.93l.292-13.764zm-.18 30.316v-10.25H380.69c0-1.706-.017-3.314.016-4.92.006-.243.209-.506.373-.72a9399.208 9399.208 0 0 1 19.843-25.695c.236-.306.75-.54 1.144-.557 1.546-.064 3.096-.026 4.739-.026v25.625h6.16v6.233h-6.145v10.31h-7.476zm-89.339 0c.217-.367.403-.758.656-1.099 3.84-5.17 7.691-10.333 11.538-15.5.166-.223.32-.456.528-.752l-12.353-16.972c.404-.027.666-.06.927-.06 2.43-.004 4.86.016 7.29-.015.617-.008 1.01.165 1.38.69 2.193 3.098 4.43 6.165 6.65 9.242.272.376.548.748.876 1.196 1.493-2.048 2.94-4.03 4.387-6.012 1.1-1.508 2.183-3.028 3.31-4.516.197-.26.562-.557.854-.561 2.799-.042 5.599-.025 8.546-.025-.228.35-.375.603-.548.838-3.8 5.161-7.59 10.33-11.421 15.469-.445.596-.393.954.022 1.513 3.893 5.247 7.757 10.514 11.626 15.78.183.248.331.522.496.784h-9.16c-1.17-1.67-2.33-3.35-3.515-5.01-1.525-2.134-3.07-4.255-4.67-6.47l-8.448 11.48h-8.971zm-59.622 0c-.142-.103-.272-.233-.428-.308-3.278-1.56-4.788-4.254-4.819-7.775-.054-6.099-.015-12.197-.016-18.296v-1.191h-6.095v-6.793h6.095v-6.068c0-1.931 0-1.935 1.806-2.465 2.231-.656 4.464-1.305 6.82-1.993v10.498h10.384c-.444 1.45-.84 2.782-1.264 4.105-.282.88-.368 2.056-.982 2.526-.576.443-1.73.145-2.63.151-1.745.015-3.488.015-5.232.025-.055 0-.11.043-.276.112v.95c0 5.165-.009 10.33.009 15.495.003.773.064 1.558.212 2.315.299 1.515 1.268 2.302 2.816 2.361 2 .076 3.786-.597 5.493-1.638.107.207.215.393.301.588.778 1.758 1.551 3.518 2.421 5.494-1.543.652-3.033 1.28-4.523 1.907h-10.092zm19.437 0c-.03-.308-.086-.615-.086-.923-.004-10.827-.003-21.654-.003-32.481v-.982h2.354c1.433 0 2.866.03 4.297-.014.596-.018.815.205.927.755.197.968.466 1.921.733 2.998.763-.66 1.413-1.265 2.107-1.815 3.08-2.443 6.477-3.527 10.368-2.284 1.949.623 1.941.647 1.154 2.532l-2.357 5.644c-.198-.074-.366-.117-.516-.197-2.541-1.347-5.02-1.156-7.454.29-2.888 1.714-2.928 1.778-2.928 5.105l.002 21.372h-8.597zm-45.043 0V132.18h8.751v1.137c0 10.758 0 21.514.002 32.27 0 .31.02.62.031.93h-8.784zm71.771 0c-.03-.308-.087-.615-.087-.923-.004-10.827-.003-21.653-.003-32.48v-.908h8.653c.02.206.06.413.06.62.003 11.045.002 22.088.002 33.132 0 .186-.019.373-.028.56h-8.597zm141.205-11.919c7.28 0 13.189-5.91 13.176-13.178-.013-7.184-5.971-13.119-13.174-13.122-7.234-.003-13.199 5.975-13.179 13.212.02 7.213 5.935 13.088 13.177 13.088zm16.167-11.421c-.174.743-.337 1.49-.523 2.23-1.904 7.58-8.692 12.496-16.764 12.145-7.224-.312-13.666-6.184-14.827-13.51-1.414-8.927 4.649-17.158 13.667-18.554 8.74-1.353 17.034 4.92 18.275 13.818.024.175.113.34.172.51v3.36zm-224.816-16.59c-3.06-.018-5.28-2.227-5.26-5.23.02-2.955 2.346-5.191 5.361-5.156 3.11.035 5.344 2.258 5.32 5.29-.025 2.913-2.367 5.114-5.421 5.096m71.685 0c-3.026-.003-5.36-2.27-5.327-5.173.034-2.98 2.38-5.24 5.412-5.214 3.015.025 5.31 2.258 5.336 5.188.025 2.912-2.364 5.202-5.421 5.2"/><path fill="#FFF" d="M436.74 143.571v-10.133h2.191v8.01h7.991v2.123z"/></g></svg>