<svg xmlns="http://www.w3.org/2000/svg" width="210" height="30"><path d="M76.113 7.404h4.069v10.258h1.382l4.948-5.303h2.362l-5.552 5.872 4.572 4.857h1.633v1.66h-2.588l-5.375-5.6h-1.382v5.6h-1.933V9.064h-2.136zm20.774 1.437c0-.446.15-.83.452-1.152.301-.323.686-.484 1.155-.484.486 0 .892.161 1.218.484.327.321.49.706.49 1.152 0 .43-.163.793-.49 1.09-.326.298-.732.446-1.218.446-.469 0-.854-.148-1.155-.446a1.47 1.47 0 0 1-.452-1.09zM93.22 24.747v-1.66h4.371V14.02h-4.37v-1.66h6.355v10.728h4.27v1.66H93.22zm13.211-12.388h2.99V9.906l1.985-.545v2.998h6.706v1.66h-6.706v5.848c0 1.205.296 2.097.887 2.676.593.578 1.441.867 2.542.867.751 0 1.406-.141 1.966-.422.558-.28 1.064-.586 1.515-.916l.65 1.462c-.586.463-1.285.834-2.097 1.115-.812.28-1.645.42-2.5.42a6.227 6.227 0 0 1-1.896-.284 4.385 4.385 0 0 1-1.57-.88 4.217 4.217 0 0 1-1.08-1.524c-.269-.62-.403-1.358-.403-2.217v-6.145h-2.989v-1.66zm15.7 17.467h12.259v-1.734h-12.259zm21.226-6.441c1.015 0 1.812-.26 2.396-.78.582-.522.989-1.318 1.222-2.392v-5.872c-.732-.347-1.755-.52-3.07-.52-1.33 0-2.377.388-3.142 1.165-.765.776-1.148 1.964-1.148 3.567 0 .711.066 1.36.199 1.945.134.586.346 1.094.637 1.524.29.43.674.764 1.147 1.003.474.24 1.06.36 1.759.36zm5.603 1.981c0 .777-.151 1.458-.453 2.045a4.017 4.017 0 0 1-1.244 1.45 5.665 5.665 0 0 1-1.845.854 8.752 8.752 0 0 1-2.287.285c-.988 0-1.85-.099-2.587-.298-.737-.198-1.374-.454-1.91-.767l.953-1.76c.15.133.346.261.588.385.242.123.522.238.839.346.318.108.656.194 1.015.26.358.066.714.1 1.064.1.735 0 1.348-.067 1.84-.198.493-.133.89-.34 1.19-.62.3-.28.518-.644.65-1.09.135-.447.202-.992.202-1.635v-1.388h-.1a3.892 3.892 0 0 1-1.48 1.264c-.6.297-1.377.445-2.328.445-1.904 0-3.304-.524-4.197-1.573-.893-1.049-1.34-2.68-1.34-4.893 0-2.114.569-3.713 1.708-4.795 1.139-1.082 2.83-1.623 5.075-1.623 1.038 0 1.92.071 2.649.211.729.141 1.395.32 1.998.534v12.461zm3.566-.619v-1.66h3.392v-9.069h-3.392v-1.66h4.698l.402 1.611h.126a9.083 9.083 0 0 1 1.909-1.313c.703-.363 1.54-.546 2.51-.546.57 0 1.027.11 1.37.324.343.214.612.529.804.94.193.415.323.913.39 1.5.066.586.1 1.25.1 1.995l-1.758.024c0-1.048-.105-1.819-.315-2.31-.21-.492-.59-.736-1.142-.736-.52 0-.99.074-1.407.22-.418.15-.783.33-1.092.544a5.836 5.836 0 0 0-.791.643 3.82 3.82 0 0 0-.478.543v7.29h4.823v1.66h-10.15zm16.931-6.194c0 .578.07 1.156.213 1.734a4.73 4.73 0 0 0 .688 1.562 3.57 3.57 0 0 0 1.24 1.114c.508.281 1.13.422 1.865.422 1.335 0 2.341-.409 3.018-1.228.675-.817 1.013-2.018 1.013-3.604 0-.595-.07-1.177-.213-1.747a4.613 4.613 0 0 0-.7-1.548 3.685 3.685 0 0 0-1.252-1.115c-.51-.28-1.133-.42-1.865-.42-1.337 0-2.339.403-3.006 1.213-.667.81-1.001 2.014-1.001 3.617m-2.085 0c0-1.998.526-3.58 1.581-4.744 1.056-1.165 2.564-1.748 4.523-1.748 1.054 0 1.963.17 2.725.51a5.316 5.316 0 0 1 1.897 1.374 5.559 5.559 0 0 1 1.117 2.056c.243.792.364 1.644.364 2.552 0 .991-.135 1.888-.4 2.688-.27.802-.662 1.483-1.181 2.044-.52.562-1.16.996-1.922 1.301-.763.306-1.63.458-2.6.458-1.04 0-1.944-.169-2.714-.508-.77-.337-1.406-.796-1.909-1.375a5.565 5.565 0 0 1-1.118-2.056 8.67 8.67 0 0 1-.364-2.552m22.734-6.194h3.592v8.449c0 .81.051 1.585.15 2.329h1.684v1.61h-3.366l-.076-2.105h-.099a5.25 5.25 0 0 1-1.729 1.734c-.718.446-1.587.669-2.605.669-.769 0-1.424-.087-1.966-.26a2.783 2.783 0 0 1-1.341-.905c-.35-.43-.609-1.003-.776-1.722-.167-.718-.25-1.613-.25-2.688v-5.451h-1.684v-1.66h3.668v6.715c0 .677.028 1.284.087 1.82.059.538.179.992.361 1.363.184.373.454.653.811.843.357.19.835.285 1.433.285a3.31 3.31 0 0 0 2.255-.842 5.373 5.373 0 0 0 1.458-2.107v-6.417h-1.607v-1.66zm14.167 1.536a3.72 3.72 0 0 0-1.419.272c-.443.181-.837.42-1.181.717a4.073 4.073 0 0 0-.841.988 2.907 2.907 0 0 0-.402 1.087v5.635c.368.247.782.441 1.243.58.46.141 1.069.211 1.822.211 1.34 0 2.411-.432 3.216-1.298.802-.865 1.205-2.129 1.205-3.794 0-1.4-.281-2.483-.842-3.249-.561-.765-1.494-1.149-2.801-1.149zm-5.777 2.8c0-.149-.004-.343-.012-.582a22.192 22.192 0 0 0-.102-1.499 7.142 7.142 0 0 0-.088-.645h-1.682v-1.61h3.341l.251 1.734h.126a5.653 5.653 0 0 1 1.72-1.449c.696-.388 1.545-.583 2.55-.583 1.792 0 3.14.488 4.045 1.463.904.975 1.356 2.568 1.356 4.781 0 1.041-.156 1.979-.465 2.813-.31.835-.749 1.541-1.319 2.119a5.857 5.857 0 0 1-2.06 1.338c-.803.312-1.692.469-2.662.469-.352 0-.666-.012-.942-.037a8.21 8.21 0 0 1-.754-.098 6.462 6.462 0 0 1-.666-.161 8.945 8.945 0 0 1-.703-.249v5.204h-1.934V16.695zm-157.667 9.37l-1.476-1.427L63.849 0l1.476 1.426zm-19.348-.684l-1.475-1.429L43.209.635l1.475 1.428zm-20.005 0L0 23.952 23.204.635l1.475 1.428z" fill="#FFF" fill-rule="evenodd"/></svg>