<svg xmlns="http://www.w3.org/2000/svg" width="87" height="87"><g fill="none" fill-rule="evenodd"><path fill="#2611C9" d="M43.5 0C67.524 0 87 19.476 87 43.5S67.524 87 43.5 87 0 67.524 0 43.5 19.476 0 43.5 0"/><path fill="#8B9DFF" d="M43 16c16.016 0 29 12.984 29 29S59.016 74 43 74c-16.017 0-29-12.984-29-29s12.983-29 29-29"/><path fill="#E8F2FF" d="M73 45.002C73 55.776 66.854 65.152 57.782 70v-.017a20.57 20.57 0 0 1 1.42-5.74c.104-.252.208-.539.104-.791-.086-.202-.277-.337-.45-.472-1.627-1.279-1.87-3.535-2.354-5.521-.07-.304-.173-.64-.415-.842-.174-.152-.382-.219-.607-.286-1.16-.337-2.406-.421-3.566-.774-1.16-.354-2.32-1.06-2.735-2.172-.554-1.48.329-3.064.64-4.612.139-.657.156-1.33.07-1.986-.052-.388-.122-.809.103-1.129.14-.185.347-.32.572-.42 2.112-1.128 4.276-2.273 6.682-2.542.744-.085 1.558-.05 2.164.386.433.338.71.843 1.16 1.145.485.32 1.107.354 1.714.354a23.365 23.365 0 0 0 5.505-.69c.364-.085.761-.219.952-.539.329-.556-.19-1.212-.727-1.566a6.365 6.365 0 0 0-4.086-1.027c-.312.035-.64.085-.917-.066-.242-.135-.363-.37-.52-.59-.709-1.078-1.956-1.835-3.271-1.785-1.299.051-2.562 1.027-2.735 2.29-.104.758.017 1.784-.71 2.037-.243.084-.503.034-.745 0-.865-.151-1.748-.37-2.406-.91-.658-.555-1.005-1.548-.537-2.271a19.948 19.948 0 0 0 3.532-1.077L54.58 36.87c-.121-.185-.26-.387-.242-.606.069-.774 1.523-.472 1.94-1.144.172-.27.12-.657.328-.893.155-.186.415-.219.657-.252 1.247-.185 2.51-.37 3.758-.556.9-.135 1.921-.353 2.319-1.145.12-.252.173-.555.312-.791.484-.892 1.869-.926 2.51-1.717a4.64 4.64 0 0 1-2.58.135c.329-.674.658-1.38.554-2.12-.12-.725-.883-1.416-1.61-1.146-.744.27-.849 1.212-.83 1.987.017.706.017 1.414.034 2.137 0 .337 0 .707-.208.977-.467.572-1.384.236-2.026-.135-.172.607-1.107.556-1.61.168-1.055-.825-1.072-2.592-.051-3.45.346-.287.83-.522.9-.96.07-.337-.139-.724.07-1.01.138-.185.397-.236.623-.286 1.436-.353 2.527-1.65 2.787-3.064C68.776 28.101 73 36.063 73 45.002M48.066 21.25c-.332.496-.78.922-1.029 1.467-.198.427-.282.887-.513 1.296-.863 1.5-3.466 1.551-3.78 3.273-.067.393 0 .82-.166 1.16-.2.41-.713.597-1.16.546-1.261-.154-1.808-1.774-1.775-3.086.032-1.313.348-2.729-.283-3.87-.58-1.058-1.774-1.535-2.768-2.183-.83-.529-1.592-1.45-1.592-2.387A27.225 27.225 0 0 1 43.854 16c1.741 0 3.45.17 5.107.477.116 1.705.017 3.427-.895 4.774m-12.14 10.921c-.154.607-.668 1.18-1.301 1.18-.428.017-.924-.202-1.232.084-.257.236-.188.624-.172.979.051.842-.325 1.685-.975 2.241-.36.304-.787.523-1.113.843-.428.438-.616 1.029-.873 1.568-1.249 2.546-4.09 3.911-6.812 4.838-.855.287-1.831.658-2.174 1.484-.273.657.017 1.5.634 1.871.615.371 1.505.236 1.985-.303.086.842.189 1.719.736 2.376.325.405.788.658 1.164 1.03.376.353.667.892.497 1.382-.531.42-1.421.303-1.832-.22-.36-.455-.376-1.096-.754-1.55-.684-.827-2.001-.49-3.08-.574-1.798-.152-3.27-1.939-3.047-3.708.035-.288.103-.607-.068-.86-.137-.186-.377-.27-.582-.355a3.18 3.18 0 0 1-1.592-1.5c-.171-.354-.274-.759-.548-1.045-.205-.22-.496-.354-.787-.472C14.838 30.3 22.198 20.91 32.349 17c.068.742-.07 1.484-.702 1.787-.188.084-.395.134-.548.27-.274.253-.24.707-.035 1.011.207.304.549.49.873.691 1.712 1.062 3.201 2.799 3.115 4.788-.033.607-.256 1.281-.82 1.5-.429.17-.925.034-1.37-.118-.668-.236-1.403-.64-1.506-1.332-.069-.42.136-.86.154-1.297.017-.44-.291-.961-.719-.894-.342.068-.496.471-.48.81 0 .336.103.69.018 1.01-.137.49-.616.793-1.078 1.029-.463.253-.941.506-1.404.776-.667.353-1.352.741-1.763 1.382-.411.64-.393 1.584.222 2.023.326.219.737.27 1.062.506.496.37.547 1.061.787 1.635.24.556 1.027 1.028 1.438.573.12-.135.171-.303.205-.488.154-.794.034-1.603.07-2.394.033-.81.238-1.653.854-2.175.617-.523 1.729-.49 2.106.218.085.152.12.304.223.44.479.64 1.608-.017 2.276.42.36.237.462.691.547 1.097.086.64.205 1.28.052 1.904m5.729 28.72c-.573.662-.538 1.622-.781 2.449-.61 2.15-2.956 3.358-4.364 5.128-.33.414-.626.876-1.078 1.158-.417.281-.956.38-1.32.711a1.75 1.75 0 0 0-.453.662 30.614 30.614 0 0 1-3.425-1.373c0-.53.035-1.059.104-1.571.209-1.473.679-3.011.105-4.4-.54-1.275-1.843-2.07-2.8-3.112a6.721 6.721 0 0 1-1.547-2.878c-.12-.48-.173-1.026.122-1.456.192-.28.522-.462.713-.744.505-.711.035-1.753.522-2.465.243-.364.695-.546 1.147-.679 3.077-.926 6.71.198 8.64 2.664.21.265.4.546.695.728.749.463 1.947.132 2.469.81.191.249.226.58.4.844.521.81 2.103.844 2.19 1.787.087.76-.834 1.158-1.339 1.737"/><path fill="#455DE1" d="M70 23.857C70 30.949 57 49 57 49S44 30.95 44 23.857 49.812 11 57 11c7.188.017 13 5.764 13 12.857"/><path fill="#E8F2FF" d="M57 17a7 7 0 1 1 0 14 7 7 0 0 1 0-14"/><path fill="#455DE1" d="M40 45.778C40 50.084 32 61 32 61s-8-10.932-8-15.222C24 41.472 27.588 38 32 38c4.413 0 8 3.488 8 7.778"/><path fill="#E8F2FF" d="M32.5 42a4.5 4.5 0 1 1 0 9 4.5 4.5 0 0 1 0-9"/></g></svg>