<svg xmlns="http://www.w3.org/2000/svg" width="74" height="74"><g fill="none" fill-rule="evenodd"><path fill="#2611C9" d="M49.323 49l-1.8 1.813L43 55.367l16.258 16.372a7.625 7.625 0 0 0 10.839 0L71 70.83 49.323 49z"/><path fill="#5242CF" d="M49 49.324L70.83 71l.91-.903a7.626 7.626 0 0 0 0-10.84L55.366 43l-4.553 4.523-1.814 1.8z"/><path fill="#A3CCEF" d="M1 3.813l4.538 10.003 6.006.554L29.187 32 31 30.186 2.812 2z"/><path fill="#AFD4EF" d="M32 29.188L14.37 11.545l-.553-6.005L3.814 1 2 2.814 30.188 31zm11 13.585L44.773 41 51 47.226 49.227 49z"/><path fill="#A3CCEF" d="M41 44.773L42.773 43 49 49.226 47.227 51z"/><path fill="#78B9EB" d="M49 50l2-2v.001L49 50zm-1 1l2-2-2 2z"/><path fill="#455DE1" d="M71.967 12l-9.593 9.535-8.092-2.685L3 69.885l.897.893a7.676 7.676 0 0 0 10.803 0L50.58 35.07a17.87 17.87 0 0 0 17.699-5.104A17.66 17.66 0 0 0 71.967 12"/><path fill="#4050DD" d="M61 1.033A17.662 17.662 0 0 0 43.033 4.72a17.874 17.874 0 0 0-5.104 17.702L2.222 58.306c-2.963 2.985-2.963 7.818 0 10.804l.893.89 33.283-33.44L54.15 18.72l-2.685-8.093L61 1.033z"/></g></svg>