<svg xmlns="http://www.w3.org/2000/svg" width="18" height="18" viewBox="0 0 18 18">
    <g fill="#FFF" fill-rule="evenodd">
        <path d="M13.082 4.04l.018.133-.2.041-.027.284h.24l.319-.031.164-.195-.175-.068-.096-.11-.144-.233-.069-.328-.27.054-.076.117v.13l.13.088z"/>
        <path d="M12.853 4.15l.014-.179-.159-.069-.221.051-.164.265v.17h.19zM8.293 4.905l-.049.124H8.01v.123h.055s.004.025.007.06l.147-.013.09-.056.023-.114.117-.009.045-.095-.106-.022-.094.002z"/>
        <path d="M17.952 8.93a8.94 8.94 0 0 0-.635-3.225c-.024-.055-.045-.115-.069-.17a9.002 9.002 0 0 0-1.684-2.602c-.045-.05-.092-.098-.138-.147a8.943 8.943 0 0 0-6.45-2.74A8.942 8.942 0 0 0 2.9 2.424c-.373.344-.716.72-1.026 1.12A8.928 8.928 0 0 0 0 9.023c0 4.95 4.028 8.976 8.976 8.976 3.484 0 6.505-1.994 7.995-4.898a8.86 8.86 0 0 0 .843-2.51c.09-.508.139-1.033.139-1.568l-.001-.092zm-1.69-3.587l.052-.06c.069.134.132.27.193.405l-.085-.002-.16.021v-.364zm-1.298-1.567l.002-.402c.14.15.277.305.407.464l-.162.241-.565-.005-.036-.117.354-.18zM4.136 2.78v-.014h.18l.015-.061h.295v.128l-.084.111h-.406V2.78zm.288.4s.179-.03.195-.03c.014 0 0 .18 0 .18l-.406.025-.077-.091.288-.083zm12.41 3.565h-.657l-.4-.298-.422.04v.258h-.133l-.144-.103-.729-.185v-.473l-.925.072-.286.155h-.368l-.18-.02-.446.25v.464l-.91.656.076.282h.185l-.048.267-.13.048-.007.698.786.898h.344l.02-.056h.616l.177-.164h.35l.191.191.521.056-.069.69.58 1.02-.306.583.02.274.24.238v.66l.314.422v.548h.272a8.222 8.222 0 0 1-6.39 3.047c-4.543 0-8.237-3.696-8.237-8.24 0-1.142.234-2.233.656-3.223v-.258l.296-.357c.103-.192.211-.382.328-.566l.015.15-.343.416c-.106.2-.205.404-.294.615v.469l.341.164v.653l.328.559.269.041.034-.191-.316-.487-.061-.472h.184l.078.486.456.664-.12.215.29.443.72.177v-.116l.287.042-.027.204.227.04.348.096.492.563.631.047.062.514-.431.3-.02.459-.063.281.624.78.048.268s.226.06.252.06c.028 0 .507.363.507.363v1.412l.171.047-.117.65.289.385-.052.643.378.67.489.424.49.01.047-.157-.359-.305.02-.15.065-.186.013-.187-.244-.007-.122-.153.201-.197.028-.146-.226-.065.013-.137.323-.049.49-.234.164-.301.514-.658-.118-.514.157-.274.473.015.319-.25.103-.993.351-.448.063-.287-.322-.105-.213-.348-.725-.007-.575-.218-.027-.411-.193-.335-.52-.008-.3-.472-.267-.132-.015.145-.485.028-.178-.247-.507-.102-.418.48-.656-.109-.049-.74-.48-.084.193-.362-.055-.21-.63.423-.396-.05-.14-.31.084-.318.22-.404.503-.255h.971l-.003.296.35.164-.027-.506.25-.254.509-.334.036-.235.506-.528.538-.297-.047-.04.364-.342.134.034.06.077.14-.153.034-.016-.152-.022-.154-.05v-.148l.082-.067h.179l.083.036.072.145.086-.015V4.56l.026.01.252-.038.036-.125.144.036v.135l-.133.093.02.146.456.14.002.005.104-.008.007-.199-.362-.164-.02-.095.301-.103.013-.289-.316-.19-.02-.486-.43.211h-.157l.04-.37-.586-.138-.244.184v.56l-.436.138-.175.366-.191.03v-.467l-.41-.058-.205-.133-.083-.303.734-.43.36-.109.037.242.2-.01.014-.122.21-.029.003-.043-.09-.038-.02-.128.258-.021.155-.163.009-.01h.001l.048-.05.54-.068.24.204-.627.333.796.19.105-.267h.348l.124-.233-.247-.063V2.34l-.773-.343-.534.061-.3.159.02.382-.316-.047-.049-.212.303-.275-.548-.027-.157.05-.069.183.206.034-.041.206-.35.021-.054.136-.507.014s-.012-.287-.034-.287l.396-.007.303-.295-.166-.082-.218.213-.364-.022-.218-.3h-.465l-.487.362h.445l.042.131-.116.107.492.014.076.178-.555-.021-.027-.137-.348-.076-.186-.102-.414.003A8.19 8.19 0 0 1 8.976.786c2.085 0 3.987.778 5.44 2.057l-.098.174-.38.15-.16.173.036.204.196.027.12.295.336-.137.056.395h-.1l-.278-.041-.308.052-.298.422-.428.067-.06.364.18.043-.053.235-.423-.085-.388.085-.081.214.067.454.227.107.382-.002.258-.023.079-.206.404-.523.265.054.261-.236.05.184.643.435-.08.104-.29-.014.112.156.178.04.21-.087-.004-.252.092-.047-.074-.08-.43-.237-.113-.32h.357l.114.114.308.265.013.32.317.338.119-.463.22-.12.041.38.217.236.429-.007c.083.213.157.43.221.652l-.044.042zM4.896 4.124l.215-.103.195.047-.067.262-.21.067-.133-.273zm1.146.617v.17h-.494l-.184-.051.047-.12.235-.096h.324v.097h.072zm.225.236v.164l-.123.08-.155.028v-.272h.278zm-.14-.067v-.194l.17.153-.17.041zm.078.395v.16l-.117.118h-.263l.042-.179.124-.01.025-.062.19-.027zm-.652-.328h.272l-.348.489-.144-.078.03-.205.19-.206zm1.114.272v.16h-.261l-.072-.104v-.148h.021l.312.092zm-.241-.22l.075-.077.126.077-.1.083-.101-.083zm10.541 2.13l.027-.03.033.141-.06-.112z"/>
        <path d="M1.395 5.541V5.8c.09-.21.19-.415.296-.615l-.296.357z"/>
    </g>
</svg>
