<svg xmlns="http://www.w3.org/2000/svg" width="88" height="95" viewBox="0 0 88 95">
    <g fill="none" fill-rule="evenodd">
        <path fill="#455DE1" d="M44 0c20.987 0 38 17.013 38 38S64.987 76 44 76 6 58.987 6 38 23.013 0 44 0"/>
        <path fill="#2611C9" d="M12.965 60L0 82.36l15.132-.8L22.007 95 34 74.312C25.406 72.1 18.028 66.952 12.965 60M74.956 60A37.617 37.617 0 0 1 54 74.341L66.017 95l6.868-13.396L88 82.401 74.956 60z"/>
        <path fill="#E8F2FF" d="M43.5 10C58.688 10 71 22.312 71 37.5S58.688 65 43.5 65 16 52.688 16 37.5 28.312 10 43.5 10"/>
        <path fill="#4050DD" d="M43.7 25.587zm6.204 6.044l.003.005a.02.02 0 0 0-.003-.005zm7.367 3.188h-.002.002zm-3.92 7.625l-.007.007.006-.007zm-9.16 6.49l-.009.006.01-.005zm-.322.01l.008.005-.008-.004zM31.205 35.273l5.457 5.204c.589.576.854 1.374.72 2.15l-1.282 7.34 6.759-3.468a2.505 2.505 0 0 1 2.343.01l6.74 3.459-1.295-7.336a2.402 2.402 0 0 1 .735-2.17l5.415-5.189-7.55-1.074c-.835-.13-1.53-.636-1.883-1.354l-3.371-6.675-3.363 6.687a2.534 2.534 0 0 1-1.847 1.338l-7.578 1.078zm4.304 14.998l-.004.002.004-.002zm.479.337v.002-.002zM35.663 53a2.53 2.53 0 0 1-1.468-.47 2.391 2.391 0 0 1-.994-2.394l1.363-7.8-5.81-5.54a2.39 2.39 0 0 1-.629-2.505 2.464 2.464 0 0 1 2.01-1.66l8.031-1.141 3.583-7.123A2.49 2.49 0 0 1 43.993 23c.96 0 1.82.524 2.244 1.367l3.596 7.123 8.032 1.141c.943.134 1.714.77 2.01 1.66.296.89.057 1.848-.626 2.502l-5.785 5.542 1.378 7.808c.154.93-.23 1.839-1.001 2.384a2.54 2.54 0 0 1-2.622.189l-7.198-3.693-7.191 3.69a2.51 2.51 0 0 1-1.167.287z"/>
    </g>
</svg>
